<?xml version="1.0" encoding="utf-8"?>
<!-- Generator: Adobe Illustrator 22.1.0, SVG Export Plug-In . SVG Version: 6.00 Build 0)  -->
<svg version="1.1" id="Layer_1" xmlns="http://www.w3.org/2000/svg" xmlns:xlink="http://www.w3.org/1999/xlink" x="0px" y="0px"
	 viewBox="0 0 1023 1024.1" style="enable-background:new 0 0 1023 1024.1;" xml:space="preserve">
<style type="text/css">
	.st0{fill:#E8782E;}
	.st1{fill:#035421;}
	.st2{fill:#053878;}
	.st3{fill:#033373;}
</style>
<title>Asset 1</title>
<g>
	<path class="st0" d="M1315.5,26.8c-8.1-2.7-15.9-1.9-23.4,4.5l-4-2.6C1296.6,19.3,1305.9,20.7,1315.5,26.8 M1275.2,23.6
		c7.3,0,13.2,5.9,13.2,13.2s-5.9,13.2-13.2,13.2c-7.3,0-13.2-5.8-13.2-13.2S1267.8,23.6,1275.2,23.6z M1309.4,97.7
		c-27.3-4.3-43.3-17.6-42.4-44.8l10.9,2C1277.7,77.2,1289.3,90.5,1309.4,97.7z"/>
	<path class="st1" d="M1327.5,95c23.2-14,38.8-36.2,24.1-64.9l-10,6.7C1350.7,61.3,1344.8,79.1,1327.5,95 M1328.9,2.4
		c-7.6,4-10.6,13.4-6.6,21c4.1,7.6,13.4,10.6,21.1,6.6c7.6-4,10.6-13.4,6.6-21C1345.9,1.3,1336.6-1.6,1328.9,2.4z M1289.1,25
		c6.7-7.5,15.5-10.7,26.9-7.1l3-4.7C1305.5,7.3,1295.1,14.2,1289.1,25z"/>
	<path class="st2" d="M1313.1,34.1c-5.6,2.9-7.7,9.8-4.8,15.3c2.9,5.6,9.8,7.7,15.3,4.8c5.6-2.9,7.7-9.8,4.8-15.3
		C1325.4,33.3,1318.5,31.2,1313.1,34.1 M1285.9,54.8c4.3-5.6,10.4-8.7,18.2-7.3l1.6-3.4C1296.2,40.9,1289,47,1285.9,54.8z
		 M1315.9,100.4c15.9-10.7,26-30,14.2-47.3l-6.6,5C1330.4,74.6,1327.4,88,1315.9,100.4z"/>
	<path class="st3" d="M1380,81.4v-7.9h5.7v0.9h-4.6v2.4h4.3v1h-4.3v2.7h4.8v0.9H1380z M1377.7,78.6l1,0.3c-0.2,0.9-0.6,1.5-1.2,1.9
		s-1.3,0.7-2.1,0.7c-0.8,0-1.5-0.2-2.1-0.5c-0.5-0.3-0.9-0.8-1.2-1.5c-0.3-0.7-0.4-1.4-0.4-2.1c0-0.8,0.2-1.5,0.5-2.1
		c0.3-0.6,0.8-1.1,1.3-1.4c0.6-0.3,1.2-0.5,1.9-0.5c0.8,0,1.4,0.2,2,0.6c0.5,0.4,0.9,1,1.1,1.7l-1,0.2c-0.2-0.6-0.4-1-0.8-1.2
		c-0.3-0.3-0.8-0.4-1.3-0.4c-0.6,0-1.1,0.1-1.5,0.4s-0.7,0.7-0.9,1.2s-0.2,1-0.2,1.5c0,0.7,0.1,1.2,0.3,1.7c0.2,0.5,0.5,0.9,0.9,1.1
		s0.9,0.4,1.3,0.4c0.6,0,1.1-0.2,1.5-0.5C1377.3,79.8,1377.5,79.3,1377.7,78.6z M1364.3,81.4v-7.9h1.1l4.1,6.2v-6.2h1v7.9h-1.1
		l-4.1-6.2v6.2H1364.3z M1361.4,81.4v-7.9h1v7.9H1361.4z M1378.4,91l1.4-0.2c0.2,0.8,0.4,1.3,0.8,1.7c0.4,0.3,0.8,0.5,1.4,0.5
		c0.7,0,1.2-0.2,1.6-0.7c0.4-0.4,0.7-1,0.7-1.7c0-0.6-0.2-1.2-0.6-1.6c-0.4-0.4-0.9-0.6-1.6-0.6c-0.3,0-0.6,0.1-1,0.2l0.2-1.2
		c0.1,0,0.2,0,0.2,0c0.6,0,1.1-0.2,1.6-0.5s0.7-0.8,0.7-1.4c0-0.5-0.2-0.9-0.5-1.3c-0.3-0.3-0.8-0.5-1.3-0.5s-1,0.2-1.3,0.5
		c-0.4,0.3-0.6,0.8-0.7,1.5l-1.4-0.3c0.2-0.9,0.5-1.6,1.1-2.1c0.6-0.5,1.3-0.8,2.2-0.8c0.6,0,1.2,0.1,1.7,0.4s0.9,0.6,1.2,1.1
		c0.3,0.5,0.4,0.9,0.4,1.4s-0.1,0.9-0.4,1.3c-0.3,0.4-0.6,0.7-1.2,0.9c0.7,0.2,1.2,0.5,1.5,1c0.4,0.5,0.5,1.1,0.5,1.8
		c0,1-0.4,1.8-1.1,2.5c-0.7,0.7-1.6,1-2.7,1c-1,0-1.8-0.3-2.4-0.9C1378.8,92.7,1378.5,91.9,1378.4,91z M1375.5,86.5
		c0-0.8-0.2-1.4-0.6-1.9s-0.9-0.7-1.5-0.7s-1.1,0.2-1.6,0.7s-0.7,1.1-0.7,1.9c0,0.7,0.2,1.3,0.6,1.7c0.4,0.4,1,0.7,1.6,0.7
		c0.6,0,1.2-0.2,1.6-0.7C1375.3,87.8,1375.5,87.2,1375.5,86.5z M1369.9,91.4l1.3-0.1c0.1,0.6,0.3,1.1,0.6,1.3
		c0.3,0.3,0.7,0.4,1.2,0.4c0.4,0,0.8-0.1,1.1-0.3c0.3-0.2,0.6-0.5,0.8-0.8c0.2-0.3,0.4-0.8,0.5-1.3s0.2-1.1,0.2-1.7
		c0-0.1,0-0.2,0-0.3c-0.3,0.4-0.6,0.8-1.1,1.1c-0.5,0.3-1,0.4-1.5,0.4c-0.9,0-1.7-0.3-2.3-1c-0.6-0.7-1-1.6-1-2.7s0.3-2,1-2.7
		c0.7-0.7,1.5-1,2.5-1c0.7,0,1.4,0.2,2,0.6c0.6,0.4,1.1,0.9,1.4,1.7c0.3,0.7,0.5,1.8,0.5,3.1c0,1.4-0.2,2.6-0.5,3.4
		c-0.3,0.8-0.8,1.5-1.4,1.9c-0.6,0.4-1.3,0.7-2.2,0.7s-1.6-0.2-2.1-0.7C1370.3,92.9,1370,92.2,1369.9,91.4z M1366.9,86.5
		c0-0.8-0.2-1.4-0.6-1.9c-0.4-0.5-0.9-0.7-1.5-0.7c-0.6,0-1.1,0.2-1.6,0.7s-0.7,1.1-0.7,1.9c0,0.7,0.2,1.3,0.6,1.7
		c0.4,0.4,1,0.7,1.6,0.7c0.6,0,1.2-0.2,1.6-0.7C1366.7,87.8,1366.9,87.2,1366.9,86.5z M1361.3,91.4l1.3-0.1c0.1,0.6,0.3,1.1,0.6,1.3
		c0.3,0.3,0.7,0.4,1.2,0.4c0.4,0,0.8-0.1,1.1-0.3c0.3-0.2,0.6-0.5,0.8-0.8c0.2-0.3,0.4-0.8,0.5-1.3c0.1-0.5,0.2-1.1,0.2-1.7
		c0-0.1,0-0.2,0-0.3c-0.3,0.4-0.6,0.8-1.1,1.1c-0.5,0.3-1,0.4-1.5,0.4c-0.9,0-1.7-0.3-2.3-1s-1-1.6-1-2.7s0.3-2,1-2.7
		c0.7-0.7,1.5-1,2.5-1c0.7,0,1.4,0.2,2,0.6s1.1,0.9,1.4,1.7c0.3,0.7,0.5,1.8,0.5,3.1c0,1.4-0.2,2.6-0.5,3.4s-0.8,1.5-1.4,1.9
		s-1.3,0.7-2.2,0.7s-1.6-0.2-2.1-0.7S1361.4,92.2,1361.3,91.4z M1357.6,94h-1.4v-8.8c-0.3,0.3-0.8,0.6-1.3,0.9s-1,0.6-1.4,0.7v-1.2
		c0.8-0.4,1.4-0.8,2-1.3s1-1,1.2-1.5h0.9C1357.6,82.8,1357.6,94,1357.6,94z M1353.6,78.8l1-0.1c0,0.4,0.2,0.7,0.3,1
		c0.2,0.3,0.4,0.5,0.8,0.6c0.4,0.2,0.8,0.2,1.2,0.2s0.7-0.1,1-0.2c0.3-0.1,0.5-0.3,0.7-0.5c0.1-0.2,0.2-0.4,0.2-0.7
		c0-0.2-0.1-0.5-0.2-0.6c-0.1-0.2-0.4-0.3-0.7-0.5c-0.2-0.1-0.7-0.2-1.4-0.4c-0.7-0.2-1.2-0.3-1.5-0.5c-0.4-0.2-0.7-0.4-0.8-0.7
		c-0.2-0.3-0.3-0.6-0.3-1s0.1-0.8,0.3-1.1c0.2-0.3,0.6-0.6,1-0.8c0.4-0.2,0.9-0.3,1.4-0.3c0.6,0,1.1,0.1,1.5,0.3
		c0.4,0.2,0.8,0.5,1,0.8c0.2,0.4,0.4,0.8,0.4,1.2l-1,0.1c-0.1-0.5-0.2-0.9-0.5-1.1c-0.3-0.3-0.8-0.4-1.4-0.4s-1.1,0.1-1.4,0.3
		c-0.3,0.2-0.4,0.5-0.4,0.8s0.1,0.5,0.3,0.7c0.2,0.2,0.7,0.4,1.6,0.6c0.8,0.2,1.4,0.4,1.7,0.5c0.5,0.2,0.8,0.5,1,0.8
		c0.2,0.3,0.3,0.7,0.3,1.1s-0.1,0.8-0.4,1.2c-0.2,0.4-0.6,0.7-1,0.9c-0.4,0.2-1,0.3-1.5,0.3c-0.7,0-1.3-0.1-1.8-0.3
		c-0.5-0.2-0.9-0.5-1.1-0.9C1353.7,79.8,1353.6,79.4,1353.6,78.8z"/>
</g>
<g>
	<path class="st0" d="M444.5,324c-64.3-21.4-126.1-15.1-185.7,35.7l-31.7-20.6C294.5,264.5,368.3,275.6,444.5,324 M124.7,298.6
		c57.9,0,104.7,46.8,104.7,104.7S182.6,508,124.7,508S20,462,20,403.3S66,298.6,124.7,298.6z M396.1,886.5
		C179.5,852.4,52.5,746.8,59.7,531l86.5,15.9C144.6,723.8,236.6,829.4,396.1,886.5z"/>
	<path class="st1" d="M539.7,865.1C723.7,754,847.5,577.9,730.9,350.2l-79.3,53.2C723.7,597.7,676.9,738.9,539.7,865.1 M550.8,130.4
		c-60.3,31.7-84.1,106.3-52.4,166.6c32.5,60.3,106.3,84.1,167.4,52.4c60.3-31.7,84.1-106.3,52.4-166.6
		C685.6,121.7,611.9,98.7,550.8,130.4z M235,309.7c53.2-59.5,123-84.9,213.4-56.3l23.8-37.3C365.1,169.3,282.6,224,235,309.7z"/>
	<path class="st2" d="M425.4,381.9c-44.4,23-61.1,77.8-38.1,121.4c23,44.4,77.8,61.1,121.4,38.1c44.4-23,61.1-77.8,38.1-121.4
		C523,375.5,468.3,358.9,425.4,381.9 M209.6,546.1c34.1-44.4,82.5-69,144.4-57.9l12.7-27C291.3,435.8,234.2,484.2,209.6,546.1z
		 M447.6,907.9c126.1-84.9,206.3-238,112.7-375.3l-52.4,39.7C562.7,703.2,538.9,809.5,447.6,907.9z"/>
	<path class="st3" d="M956.2,757.2v-62.7h45.2v7.1h-36.5v19H999v7.9h-34.1V750h38.1v7.1H956.2z M937.9,734.9l7.9,2.4
		c-1.6,7.1-4.8,11.9-9.5,15.1c-4.8,3.2-10.3,5.6-16.7,5.6c-6.3,0-11.9-1.6-16.7-4c-4-2.4-7.1-6.3-9.5-11.9
		c-2.4-5.6-3.2-11.1-3.2-16.7c0-6.3,1.6-11.9,4-16.7c2.4-4.8,6.3-8.7,10.3-11.1c4.8-2.4,9.5-4,15.1-4c6.3,0,11.1,1.6,15.9,4.8
		c4,3.2,7.1,7.9,8.7,13.5l-7.9,1.6c-1.6-4.8-3.2-7.9-6.3-9.5c-2.4-2.4-6.3-3.2-10.3-3.2c-4.8,0-8.7,0.8-11.9,3.2
		c-3.2,2.4-5.6,5.6-7.1,9.5c-1.6,4-1.6,7.9-1.6,11.9c0,5.6,0.8,9.5,2.4,13.5c1.6,4,4,7.1,7.1,8.7c3.2,1.6,7.1,3.2,10.3,3.2
		c4.8,0,8.7-1.6,11.9-4C934.8,744.5,936.4,740.5,937.9,734.9z M831.6,757.2v-62.7h8.7l32.5,49.2v-49.2h7.9v62.7h-8.7L839.6,708v49.2
		H831.6z M808.6,757.2v-62.7h7.9v62.7H808.6z M943.5,833.3l11.1-1.6c1.6,6.3,3.2,10.3,6.3,13.5c3.2,2.4,6.3,4,11.1,4
		c5.6,0,9.5-1.6,12.7-5.6c3.2-3.2,5.6-7.9,5.6-13.5c0-4.8-1.6-9.5-4.8-12.7c-3.2-3.2-7.1-4.8-12.7-4.8c-2.4,0-4.8,0.8-7.9,1.6
		l1.6-9.5c0.8,0,1.6,0,1.6,0c4.8,0,8.7-1.6,12.7-4c4-2.4,5.6-6.3,5.6-11.1c0-4-1.6-7.1-4-10.3c-2.4-2.4-6.3-4-10.3-4
		s-7.9,1.6-10.3,4c-3.2,2.4-4.8,6.3-5.6,11.9l-11.1-2.4c1.6-7.1,4-12.7,8.7-16.7s10.3-6.3,17.5-6.3c4.8,0,9.5,0.8,13.5,3.2
		s7.1,4.8,9.5,8.7c2.4,4,3.2,7.1,3.2,11.1s-0.8,7.1-3.2,10.3c-2.4,3.2-4.8,5.6-9.5,7.1c5.6,1.6,9.5,4,11.9,7.9c3.2,4,4,8.7,4,14.3
		c0,7.9-3.2,14.3-8.7,19.8c-5.6,5.6-12.7,7.9-21.4,7.9c-7.9,0-14.3-2.4-19-7.1C946.7,846.8,944.3,840.5,943.5,833.3z M920.5,797.6
		c0-6.3-1.6-11.1-4.8-15.1c-3.2-4-7.1-5.6-11.9-5.6s-8.7,1.6-12.7,5.6s-5.6,8.7-5.6,15.1c0,5.6,1.6,10.3,4.8,13.5
		c3.2,3.2,7.9,5.6,12.7,5.6c4.8,0,9.5-1.6,12.7-5.6C918.9,807.9,920.5,803.2,920.5,797.6z M876.1,836.5l10.3-0.8
		c0.8,4.8,2.4,8.7,4.8,10.3c2.4,2.4,5.6,3.2,9.5,3.2c3.2,0,6.3-0.8,8.7-2.4c2.4-1.6,4.8-4,6.3-6.3c1.6-2.4,3.2-6.3,4-10.3
		c0.8-4,1.6-8.7,1.6-13.5c0-0.8,0-1.6,0-2.4c-2.4,3.2-4.8,6.3-8.7,8.7s-7.9,3.2-11.9,3.2c-7.1,0-13.5-2.4-18.2-7.9
		s-7.9-12.7-7.9-21.4s2.4-15.9,7.9-21.4s11.9-7.9,19.8-7.9c5.6,0,11.1,1.6,15.9,4.8c4.8,3.2,8.7,7.1,11.1,13.5
		c2.4,5.6,4,14.3,4,24.6c0,11.1-1.6,20.6-4,27c-2.4,6.3-6.3,11.9-11.1,15.1c-4.8,3.2-10.3,5.6-17.5,5.6c-7.1,0-12.7-1.6-16.7-5.6
		C879.2,848.4,876.9,842.8,876.1,836.5z M852.3,797.6c0-6.3-1.6-11.1-4.8-15.1s-7.1-5.6-11.9-5.6c-4.8,0-8.7,1.6-12.7,5.6
		s-5.6,8.7-5.6,15.1c0,5.6,1.6,10.3,4.8,13.5c3.2,3.2,7.9,5.6,12.7,5.6c4.8,0,9.5-1.6,12.7-5.6C850.7,807.9,852.3,803.2,852.3,797.6
		z M807.8,836.5l10.3-0.8c0.8,4.8,2.4,8.7,4.8,10.3c2.4,2.4,5.6,3.2,9.5,3.2c3.2,0,6.3-0.8,8.7-2.4c2.4-1.6,4.8-4,6.3-6.3
		s3.2-6.3,4-10.3c0.8-4,1.6-8.7,1.6-13.5c0-0.8,0-1.6,0-2.4c-2.4,3.2-4.8,6.3-8.7,8.7c-4,2.4-7.9,3.2-11.9,3.2
		c-7.1,0-13.5-2.4-18.2-7.9c-4.8-5.6-7.9-12.7-7.9-21.4s2.4-15.9,7.9-21.4s11.9-7.9,19.8-7.9c5.6,0,11.1,1.6,15.9,4.8
		c4.8,3.2,8.7,7.1,11.1,13.5c2.4,5.6,4,14.3,4,24.6c0,11.1-1.6,20.6-4,27c-2.4,6.3-6.3,11.9-11.1,15.1c-4.8,3.2-10.3,5.6-17.5,5.6
		c-7.1,0-12.7-1.6-16.7-5.6C811.8,848.4,808.6,842.8,807.8,836.5z M778.5,857.1h-11.1v-69.8c-2.4,2.4-6.3,4.8-10.3,7.1
		c-4,2.4-7.9,4.8-11.1,5.6v-9.5c6.3-3.2,11.1-6.3,15.9-10.3c4.8-4,7.9-7.9,9.5-11.9h7.1C778.5,768.3,778.5,857.1,778.5,857.1z
		 M746.7,736.5l7.9-0.8c0,3.2,1.6,5.6,2.4,7.9c1.6,2.4,3.2,4,6.3,4.8c3.2,1.6,6.3,1.6,9.5,1.6c3.2,0,5.6-0.8,7.9-1.6
		c2.4-0.8,4-2.4,5.6-4c0.8-1.6,1.6-3.2,1.6-5.6c0-1.6-0.8-4-1.6-4.8c-0.8-1.6-3.2-2.4-5.6-4c-1.6-0.8-5.6-1.6-11.1-3.2
		c-5.6-1.6-9.5-2.4-11.9-4c-3.2-1.6-5.6-3.2-6.3-5.6c-1.6-2.4-2.4-4.8-2.4-7.9c0-3.2,0.8-6.3,2.4-8.7c1.6-2.4,4.8-4.8,7.9-6.3
		c3.2-1.6,7.1-2.4,11.1-2.4c4.8,0,8.7,0.8,11.9,2.4c3.2,1.6,6.3,4,7.9,6.3c1.6,3.2,3.2,6.3,3.2,9.5l-7.9,0.8c-0.8-4-1.6-7.1-4-8.7
		c-2.4-2.4-6.3-3.2-11.1-3.2c-4.8,0-8.7,0.8-11.1,2.4c-2.4,1.6-3.2,4-3.2,6.3c0,2.4,0.8,4,2.4,5.6s5.6,3.2,12.7,4.8
		c6.3,1.6,11.1,3.2,13.5,4c4,1.6,6.3,4,7.9,6.3s2.4,5.6,2.4,8.7c0,3.2-0.8,6.3-3.2,9.5c-1.6,3.2-4.8,5.6-7.9,7.1
		c-3.2,1.6-7.9,2.4-11.9,2.4c-5.6,0-10.3-0.8-14.3-2.4c-4-1.6-7.1-4-8.7-7.1C747.5,744.5,746.7,741.3,746.7,736.5z"/>
</g>
</svg>
